<?xml version="1.0" encoding="UTF-8" standalone="no"?>
<svg
   xmlns:dc="http://purl.org/dc/elements/1.1/"
   xmlns:cc="http://creativecommons.org/ns#"
   xmlns:rdf="http://www.w3.org/1999/02/22-rdf-syntax-ns#"
   xmlns:svg="http://www.w3.org/2000/svg"
   xmlns="http://www.w3.org/2000/svg"
   viewBox="0 0 1122.52 793.70667"
   height="793.70667"
   width="1122.52"
   xml:space="preserve"
   id="svg2"
   version="1.1"><metadata
     id="metadata8"><rdf:RDF><cc:Work
         rdf:about=""><dc:format>image/svg+xml</dc:format><dc:type
           rdf:resource="http://purl.org/dc/dcmitype/StillImage" /></cc:Work></rdf:RDF></metadata><defs
     id="defs6"><clipPath
       id="clipPath18"
       clipPathUnits="userSpaceOnUse"><path
         id="path16"
         d="M 0,595.28 H 841.89 V 0 H 0 Z" /></clipPath></defs><g
     transform="matrix(1.3333333,0,0,-1.3333333,0,793.70667)"
     id="g10"><g
       id="g12"><g
         clip-path="url(#clipPath18)"
         id="g14"><g
           transform="translate(328.8373,347.0431)"
           id="g20"><path
             id="path22"
             style="fill:#2b2b2b;fill-opacity:1;fill-rule:nonzero;stroke:none"
             d="M 0,0 C 0,0 50.807,-45.48 43.022,-134.392 H -65.967 c 0,0 20.384,28.374 1.229,53.675 z" /></g><g
           transform="translate(328.9264,347.0431)"
           id="g24"><path
             id="path26"
             style="fill:#606060;fill-opacity:1;fill-rule:nonzero;stroke:none"
             d="m 0,0 -1.594,-1.987 c 8.728,-8.824 45.034,-53.439 39.115,-132.405 h 5.501 C 50.807,-45.48 0,0 0,0" /></g><g
           transform="translate(272.5286,239.349)"
           id="g28"><path
             id="path30"
             style="fill:#000000;fill-opacity:1;fill-rule:nonzero;stroke:none"
             d="m 0,0 62.318,59.816 c 0.11,0.286 0.236,0.575 0.342,0.861 l 1.837,38.135 c -4.675,5.704 -7.881,8.575 -7.881,8.575 L -8.122,26.67 C -1.328,17.697 0.48,8.343 0,0" /></g><g
           transform="translate(291.0098,350.3675)"
           id="g32"><path
             id="path34"
             style="fill:#2b2b2b;fill-opacity:1;fill-rule:nonzero;stroke:none"
             d="m 0,0 c -1.581,-2.472 -2.549,-4.538 -3.078,-6.192 4.87,-0.187 8.764,-4.183 8.764,-9.099 0,-5.035 -4.082,-9.117 -9.117,-9.117 -5.035,0 -9.116,4.082 -9.116,9.117 0,3.194 1.645,6 4.132,7.628 0.268,2.557 1.458,5.91 4.274,10.312 3.661,5.726 9.325,12.029 16.081,17.952 l -3.181,2.93 -38.72,-3.483 -69.04,-85.429 46.3,-45.071 90.551,68.016 2.048,37.286 -24.319,22.399 C 8.99,11.526 3.492,5.458 0,0" /></g><g
           transform="translate(297.0078,336.6964)"
           id="g36"><path
             id="path38"
             style="fill:#000000;fill-opacity:1;fill-rule:nonzero;stroke:none"
             d="m 0,0 c 0.029,-0.307 0.094,-0.603 0.095,-0.917 0.012,-5.504 -4.441,-9.975 -9.944,-9.987 -2.993,-0.006 -5.649,1.334 -7.48,3.418 1.328,-3.651 4.8,-6.271 8.909,-6.262 5.242,0.011 9.482,4.27 9.471,9.511 C 1.048,-2.705 0.647,-1.28 0,0" /></g><g
           transform="translate(288.8607,344.014)"
           id="g40"><path
             id="path42"
             style="fill:#2b2b2b;fill-opacity:1;fill-rule:nonzero;stroke:none"
             d="M 0,0 C 0,0 -4.972,0.155 -7.523,-2.257 L -7.711,9.216 -2.633,22.194 10.908,29.884 21.352,20.288 6.583,3.762 2.93,-0.836 Z" /></g><g
           transform="translate(291.3272,343.3231)"
           id="g44"><path
             id="path46"
             style="fill:#000000;fill-opacity:1;fill-rule:nonzero;stroke:none"
             d="m 0,0 c 0,0 4.965,17.294 14.877,24.587 l -6.436,5.988 -6.08,-0.554 c 0,0 -8.39,-19.704 -7.185,-27.872 z" /></g><g
           transform="translate(314.895,408.2027)"
           id="g48"><path
             id="path50"
             style="fill:#2b2b2b;fill-opacity:1;fill-rule:nonzero;stroke:none"
             d="m 0,0 c -1.413,0.456 -3.717,0.617 -6.647,-1.232 -6.31,-3.981 -13.333,-16.238 -18.683,-31.652 -3.287,-9.471 -4.571,-18.479 -4.627,-25.974 -0.005,-0.6 -0.286,-2.497 0.198,-4.285 0.017,0.012 0.441,-1.312 0.49,-1.291 1.514,0.401 2.717,0.312 3.92,0.133 0.111,6.94 1.82,21.002 4.697,29.905 4.43,13.706 11.266,25.633 16.622,29.002 0.6,0.377 1.725,0.972 2.517,0.715 3.014,-0.974 5.025,-13.955 -1.872,-35.297 -2.743,-8.485 -6.407,-16.282 -10.072,-21.795 1.06,-0.887 2.003,-1.947 2.778,-3.178 0.164,-0.261 0.301,-0.531 0.446,-0.798 4.257,5.985 8.389,14.553 11.525,24.259 C 7.265,-23.01 8.739,-2.826 0,0" /></g><g
           transform="translate(289.5362,344.6811)"
           id="g52"><path
             id="path54"
             style="fill:#606060;fill-opacity:1;fill-rule:nonzero;stroke:none"
             d="m 0,0 c 0,0 -0.298,14.872 3.999,27.351 0,0 4.187,14.892 13.949,27.809 C 17.948,55.16 -6.339,28.651 0,0" /></g><g
           transform="translate(238.3088,239.916)"
           id="g56"><path
             id="path58"
             style="fill:#606060;fill-opacity:1;fill-rule:nonzero;stroke:none"
             d="m 0,0 90.551,68.016 2.048,37.285 -13.082,11.963 9.592,-12.79 -3.762,-32.726 z" /></g><g
           transform="translate(391.2455,270.7794)"
           id="g60"><path
             id="path62"
             style="fill:#2b2b2b;fill-opacity:1;fill-rule:nonzero;stroke:none"
             d="M 0,0 V 89.023 H 21.243 V 19.094 H 55.931 V 0 Z" /></g><path
           id="path64"
           style="fill:#2b2b2b;fill-opacity:1;fill-rule:nonzero;stroke:none"
           d="m 460.376,359.803 h 21.243 V 270.78 h -21.243 z" /><g
           transform="translate(529.0161,343.5941)"
           id="g66"><path
             id="path68"
             style="fill:#2b2b2b;fill-opacity:1;fill-rule:nonzero;stroke:none"
             d="m 0,0 h -3.5 v -24.68 h 4.482 c 5.361,0 9.454,1.083 12.28,3.253 2.822,2.17 4.235,5.28 4.235,9.333 0,4.256 -1.372,7.337 -4.114,9.241 C 10.641,-0.952 6.179,0 0,0 m -24.13,-72.815 v 89.024 h 22.902 c 7.325,0 13.006,-0.481 17.036,-1.444 4.031,-0.961 7.603,-2.568 10.715,-4.817 3.314,-2.374 5.884,-5.312 7.704,-8.811 1.821,-3.499 2.732,-7.195 2.732,-11.082 0,-5.609 -1.422,-10.52 -4.266,-14.735 -2.845,-4.217 -6.949,-7.513 -12.309,-9.885 l 27.135,-38.25 H 23.268 L -0.491,-37.881 H -3.5 v -34.934 z" /></g><g
           transform="translate(583.471,295.9504)"
           id="g70"><path
             id="path72"
             style="fill:#2b2b2b;fill-opacity:1;fill-rule:nonzero;stroke:none"
             d="m 0,0 c 5.485,-3.356 10.14,-5.709 13.968,-7.06 3.826,-1.351 7.562,-2.027 11.205,-2.027 3.683,0 6.639,0.81 8.871,2.426 2.231,1.616 3.346,3.693 3.346,6.232 0,3.643 -3.971,7.736 -11.91,12.279 -1.27,0.737 -2.252,1.31 -2.947,1.719 l -6.018,3.376 c -5.853,3.317 -10.19,7.062 -13.016,11.237 -2.823,4.175 -4.236,8.901 -4.236,14.183 0,7.161 2.702,13.036 8.105,17.62 5.402,4.583 12.38,6.876 20.935,6.876 3.152,0 6.57,-0.368 10.254,-1.105 3.684,-0.736 7.777,-1.882 12.279,-3.438 V 41.443 c -4.297,2.702 -8.371,4.789 -12.218,6.263 -3.848,1.473 -7.122,2.21 -9.824,2.21 -2.988,0 -5.341,-0.644 -7.06,-1.933 -1.719,-1.291 -2.578,-3.041 -2.578,-5.251 0,-1.555 0.511,-3.008 1.534,-4.358 1.023,-1.351 2.559,-2.579 4.605,-3.684 l 10.438,-5.772 c 8.718,-4.829 14.582,-9.292 17.589,-13.384 3.01,-4.093 4.513,-8.943 4.513,-14.552 0,-8.677 -2.957,-15.687 -8.871,-21.026 -5.915,-5.342 -13.763,-8.013 -23.546,-8.013 -3.315,0 -6.917,0.348 -10.806,1.043 -3.888,0.697 -8.166,1.781 -12.832,3.254 z" /></g><g
           transform="translate(451.9416,249.4301)"
           id="g74"><path
             id="path76"
             style="fill:#f2a100;fill-opacity:1;fill-rule:nonzero;stroke:none"
             d="m 0,0 c 5.78,0 8.965,-3.656 8.965,-8.965 v -22.177 c 0,0 -1.297,-0.472 -3.715,-0.472 -2.596,0 -3.716,0.472 -3.716,0.472 v 20.879 c 0,2.536 -1.179,4.246 -4.423,4.246 -1.888,0 -3.599,-0.765 -4.897,-2.122 v -23.003 c 0,0 -1.296,-0.472 -3.716,-0.472 -2.593,0 -3.715,0.472 -3.715,0.472 v 20.879 c 0,2.536 -1.18,4.246 -4.424,4.246 -1.828,0 -3.597,-0.765 -4.895,-2.122 v -23.003 c 0,0 -1.298,-0.472 -3.715,-0.472 -2.596,0 -3.716,0.472 -3.716,0.472 v 30.079 c 0,0 1.12,0.473 3.716,0.473 2.417,0 3.715,-0.473 3.715,-0.473 v -1.71 c 1.947,1.829 4.777,2.773 7.727,2.773 3.244,0 5.721,-0.944 7.55,-3.481 C -6.842,-1.063 -3.834,0 0,0" /></g><g
           transform="translate(480.2598,231.854)"
           id="g78"><path
             id="path80"
             style="fill:#f2a100;fill-opacity:1;fill-rule:nonzero;stroke:none"
             d="m 0,0 c -3.008,0 -4.777,-1.239 -4.777,-4.424 0,-3.362 1.592,-4.541 4.246,-4.541 4.128,0 5.426,3.833 5.426,6.959 v 1.77 C 3.42,-0.118 1.71,0 0,0 m 0.531,17.576 c 8.61,0 11.795,-3.54 11.795,-10.971 v -20.171 c 0,0 -0.824,-0.472 -2.889,-0.472 -1.828,0 -3.008,0.472 -3.008,0.472 l -1.12,3.185 c -1.357,-2.771 -4.366,-4.247 -8.612,-4.247 -5.603,0 -9.142,3.304 -9.142,10.204 0,6.665 4.188,9.378 11.501,9.378 2.064,0 4.129,-0.118 5.839,-0.295 v 1.297 c 0,2.95 -1.061,5.368 -5.307,5.368 -3.893,0 -7.55,-1.416 -7.55,-1.416 0,0 -0.944,0.59 -1.652,2.182 -0.708,1.593 -0.472,3.126 -0.472,3.126 0,0 4.365,2.36 10.617,2.36" /></g><g
           transform="translate(515.2391,249.371)"
           id="g82"><path
             id="path84"
             style="fill:#f2a100;fill-opacity:1;fill-rule:nonzero;stroke:none"
             d="m 0,0 c 1.769,0 3.361,-0.355 5.189,-1.534 -0.235,-2.712 -1.238,-4.6 -3.185,-6.311 -1.061,0.885 -2.241,1.298 -3.42,1.298 -1.887,0 -3.716,-1.121 -5.131,-3.067 v -21.469 c 0,0 -1.298,-0.472 -3.716,-0.472 -2.595,0 -3.716,0.472 -3.716,0.472 v 30.079 c 0,0 1.121,0.473 3.716,0.473 2.418,0 3.716,-0.473 3.716,-0.473 v -3.36 C -4.483,-1.534 -2.301,0 0,0" /></g><g
           transform="translate(542.5507,248.3674)"
           id="g86"><path
             id="path88"
             style="fill:#f2a100;fill-opacity:1;fill-rule:nonzero;stroke:none"
             d="M 0,0 C 0,0 1.534,0.473 3.716,0.473 5.721,0.473 7.374,0 7.374,0 l -8.613,-13.86 9.968,-16.22 c 0,0 -1.71,-0.53 -4.128,-0.53 -2.477,0 -4.011,0.53 -4.011,0.53 l -8.021,12.977 H -9.2 V -30.08 c 0,0 -1.475,-0.471 -3.657,-0.471 -2.301,0 -3.775,0.471 -3.775,0.471 v 43.41 c 0,0 1.533,0.355 3.775,0.355 1.947,0 3.657,-0.355 3.657,-0.355 v -24.948 h 1.887 z" /></g><g
           transform="translate(567.9188,243.6497)"
           id="g90"><path
             id="path92"
             style="fill:#f2a100;fill-opacity:1;fill-rule:nonzero;stroke:none"
             d="M 0,0 C -3.009,0 -5.25,-2.006 -5.78,-7.49 H 4.599 c 0.06,0.648 0.119,1.297 0.119,1.946 C 4.718,-2.477 3.716,0 0,0 m -5.839,-12.622 c 0.53,-6.015 3.185,-7.549 7.313,-7.549 3.952,0 6.723,1.416 6.723,1.416 1.238,-1.18 2.183,-3.186 2.242,-5.25 0,0 -3.481,-2.418 -10.027,-2.418 -9.614,0 -13.86,5.603 -13.86,16.278 0,11.147 5.307,15.925 13.448,15.925 7.313,0 12.09,-3.774 12.09,-12.209 0,-3.775 -0.649,-6.193 -0.649,-6.193 z" /></g><g
           transform="translate(596.9403,229.3178)"
           id="g94"><path
             id="path96"
             style="fill:#f2a100;fill-opacity:1;fill-rule:nonzero;stroke:none"
             d="m 0,0 c 0,-5.013 1.828,-6.135 5.603,-6.135 0.943,0 2.063,0.177 2.063,0.177 0,0 0.532,-1.297 0.532,-2.948 0,-1.594 -0.414,-2.655 -0.414,-2.655 -1.414,-0.412 -3.007,-0.53 -4.364,-0.53 -7.549,0 -10.853,3.952 -10.853,11.736 v 14.391 h -4.481 c 0,0 -0.414,1.063 -0.414,2.714 0,1.828 0.414,2.773 0.414,2.773 h 4.481 v 5.072 c 1.947,1.179 4.719,1.71 7.433,1.473 v -6.545 h 6.96 c 0,0 0.412,-1.004 0.412,-2.714 0,-1.592 -0.412,-2.773 -0.412,-2.773 l -6.96,0 z" /></g></g></g></g></svg>